<svg xmlns="http://www.w3.org/2000/svg" viewBox="0 0 886 768" role="img" aria-label="Frio Foods Logo">
  <defs>
    <style>
      .gold { fill: #b9985a; }
      .black { fill: #111213; }
      .white { fill: #ffffff; }
    </style>
  </defs>
  <path class="gold" d="M443 0c90 0 166 44 280 90 37 15 82 43 101 77 20 36 19 85 19 167 0 66 0 130-5 185-4 45-25 73-55 96-42 31-90 56-132 77-73 37-134 76-208 76s-135-39-208-76c-42-21-90-46-132-77-30-23-51-51-55-96-5-55-5-119-5-185 0-82-1-131 19-167 19-34 64-62 101-77C277 44 353 0 443 0z"/>
  <path class="black" d="M443 36c-81 0-151 40-265 85-31 12-64 36-78 61-13 24-12 65-12 152 0 131 1 206 10 241 7 26 24 44 48 62 39 29 83 52 122 72 70 35 128 70 175 70s105-35 175-70c39-20 83-43 122-72 24-18 41-36 48-62 9-35 10-110 10-241 0-87 1-128-12-152-14-25-47-49-78-61C594 76 524 36 443 36z"/>
  <rect class="gold" x="200" y="230" width="486" height="10" rx="5"/>
  <path class="gold" d="M500 180c25-30 60-35 85-10l10 10-10 10c-15 15-25 35-45 40l-40 10-30-10c0-25 10-40 30-50z"/>
  <g>
    <path class="white" d="M210 470h100v-40H260v-70h50v-40H210v150z"/>
    <path class="white" d="M350 470h50c55 0 90-35 90-75s-35-75-90-75h-50v150zm50-40v-70h5c30 0 50 12 50 35s-20 35-50 35h-5z"/>
    <path class="white" d="M530 470h45c45 0 75-32 75-75s-30-75-75-75h-45v150zm45-40v-70h5c20 0 35 15 35 35s-15 35-35 35h-5z"/>
  </g>
  <g>
    <rect class="gold" x="285" y="560" width="316" height="12" rx="6"/>
    <text x="443" y="548" text-anchor="middle" font-size="64" fill="#ffffff" font-family="Georgia, 'Times New Roman', serif">FOODS</text>
  </g>
</svg>